<svg width="50" height="44" viewBox="0 0 50 44" fill="none" xmlns="http://www.w3.org/2000/svg">
<path d="M28.7618 13.2763C11.3149 16.7873 6.01006 22.6538 -8.42906e-05 36.1226C11.2483 24.5893 18.2472 20.0355 32.6558 17.2402C30.526 16.1548 29.4347 15.4687 28.7618 13.2763Z" fill="black"/>
<path fill-rule="evenodd" clip-rule="evenodd" d="M24.3848 2.85596C23.1155 2.85596 22.0864 3.88499 22.0864 5.15437C22.0864 6.23643 21.3243 7.15427 20.3027 7.51079C19.7543 7.70214 19.2203 7.92395 18.7026 8.1742C17.7281 8.64525 16.5398 8.53504 15.7745 7.76967C14.8765 6.87176 13.4207 6.87176 12.5228 7.76967L11.1969 9.09559C10.299 9.99349 10.299 11.4493 11.1969 12.3472C11.9623 13.1125 12.0725 14.3008 11.6014 15.2753C11.3511 15.7931 11.1293 16.3272 10.9379 16.8756C10.5814 17.8972 9.66359 18.6593 8.58156 18.6593C7.31221 18.6593 6.2832 19.6883 6.2832 20.9576V22.8345C6.2832 24.1039 7.31223 25.1329 8.58159 25.1329C9.66362 25.1329 10.5814 25.895 10.938 26.9166C11.1293 27.465 11.3512 27.999 11.6014 28.5167C12.0725 29.4912 11.9623 30.6795 11.1969 31.4448C10.299 32.3427 10.299 33.7985 11.1969 34.6964L12.5229 36.0223C13.4208 36.9202 14.8766 36.9202 15.7745 36.0223C16.5398 35.257 17.7281 35.1468 18.7025 35.6178C19.2203 35.8681 19.7544 36.0899 20.3027 36.2813C21.3243 36.6378 22.0864 37.5556 22.0864 38.6376C22.0864 39.907 23.1154 40.936 24.3848 40.936H26.2617C27.531 40.936 28.56 39.9069 28.56 38.6376C28.56 37.5556 29.3222 36.6377 30.3438 36.2812C30.8921 36.0899 31.4262 35.868 31.9439 35.6178C32.9184 35.1467 34.1066 35.2569 34.872 36.0223C35.7699 36.9201 37.2256 36.9201 38.1235 36.0223L39.4495 34.6963C40.3474 33.7984 40.3474 32.3426 39.4495 31.4447C38.6841 30.6794 38.5739 29.4911 39.045 28.5166C39.2952 27.9989 39.517 27.4649 39.7083 26.9167C40.0649 25.895 40.9827 25.1329 42.0648 25.1329C43.3342 25.1329 44.3632 24.1038 44.3632 22.8345V20.9577C44.3632 19.6883 43.3342 18.6593 42.0648 18.6593C40.9828 18.6593 40.0649 17.8971 39.7084 16.8755C39.517 16.3272 39.2952 15.7931 39.045 15.2754C38.5739 14.3009 38.6841 13.1127 39.4495 12.3473C40.3474 11.4494 40.3474 9.99359 39.4495 9.09569L38.1236 7.76975C37.2257 6.87186 35.7699 6.87186 34.872 7.76975C34.1066 8.53512 32.9184 8.64533 31.9439 8.17427C31.4262 7.92401 30.8921 7.70219 30.3438 7.51084C29.3222 7.15431 28.56 6.23646 28.56 5.1544C28.56 3.88501 27.531 2.85596 26.2616 2.85596H24.3848ZM25.3233 31.4161C30.5811 31.4161 34.8433 27.1538 34.8433 21.8961C34.8433 16.6383 30.5811 12.3761 25.3233 12.3761C20.0656 12.3761 15.8033 16.6383 15.8033 21.8961C15.8033 27.1538 20.0656 31.4161 25.3233 31.4161Z" fill="black"/>
<path d="M21.1894 29.9293C38.6495 26.369 43.9661 20.4586 50.0005 6.89904C38.7287 18.5199 31.7194 23.1124 17.3001 25.9478C19.429 27.0363 20.5198 27.7248 21.1894 29.9293Z" fill="black"/>
</svg>
